/* XPM */
static char * to_rotate_xpm[] = {
"64 64 20 1",
" 	g #FFFFFF",
".	g #FEFEFE",
"+	g #000000",
"@	g #010101",
"#	g #FCFCFC",
"$	g #FDFDFD",
"%	g #040404",
"&	g #030303",
"*	g #F8F8F8",
"=	g #FAFAFA",
"-	g #FBFBFB",
";	g #F9F9F9",
">	g #F7F7F7",
",	g #020202",
"'	g #050505",
")	g #F4F4F4",
"!	g #070707",
"~	g #060606",
"{	g #090909",
"]	g #0C0C0C",
"                .    .+++++++++++++++++++  ..                   ",
"                .    .++++++++++++++++++@ .   #.                ",
"                .    .+++++++++++++++++++$ .. .                 ",
"                .    .++++++++++++++++++%$ $ $                  ",
"                .    .+++++++++++++++++++@  # $                 ",
"                .    .++++++++++++++++++&@$.                    ",
"                .    .++++++++++++++++++++ .$.                  ",
"                .    .++++++++++++++++++@+.   $$                ",
"                     @++++++++++++++++++++.    .                ",
"                     @++++++++++++++++++++.    .                ",
"                     @++++++++++++++++++++.    .                ",
"                     @++++++++++++++++++++.    .                ",
"                     @++++++++++++++++++++.    .                ",
"                     @++++++++++++++++++++.    .                ",
"                     @++++++++++++++++++++.    .                ",
"                     @++++++++++++++++++++.    .                ",
"                     @+++++++++++++++++++.  * =                 ",
"                     @+++++++++++++++++++ $. # -                ",
"                     @++++++++++++++++++ *. = ;                 ",
"                     @++++++++++++++++++.  #.                   ",
"                     @++++++++++++++++++     #==                ",
"                     @++++++++++++++++++  ##                    ",
"                     @++++++++++++++++++#   #  =                ",
"                     @++++++++++++++++++ .#  # .                ",
"                     @++++++++++++++++++                        ",
"                     @++++++++++++++++++                        ",
"                     @++++++++++++++++++                        ",
"                     @++++++++++++++++++                        ",
"                     @++++++++++++++++++                        ",
"                     @++++++++++++++++++                        ",
"                     @++++++++++++++++++                        ",
"                     @++++++++++++++++++                        ",
"                     @++++++++++++++++++ -  $                   ",
"                     @++++++++++++++++++  #   ;                 ",
"                     @++++++++++++++++++.   ; -                 ",
"                     @++++++++++++++++++@> - $ #                ",
"                     @++++++++++++++++++&%#  .                  ",
"                     @++++++++++++++++++++,  .                  ",
"                     @++++++++++++++++++%&++&$ .                ",
"                     @++++++++++++++++++++,&+, #                ",
"                  .# +@++@&++&+@++++++++++++++++. $   .  $  $ *.",
"                $- . -++&+++&++'+++++++++++++++++  = #  # >$    ",
"                $ .=  '+++&&++++++++++++++++++++,+  # #  ;  $* -",
"                 )  = $++++++&''++++++++++++++++++,.    . -.    ",
"                -  .$$ &@++&@+++++++++++++++++++&%++ #= .$ -.#- ",
"                  *   $$+!@+'+~+++++++++++++++++++,+~+.  . #   .",
"                 $ .# #  +,@+&+%++++++++++++++++@%~+++,+- .. =. ",
"                 - $..   @++!+'+++++++++++++++++@+++@@+,,+     $",
"                         -@+++&++,+&@,+++++++++++++++++++++   . ",
"                        $  @,,+@,&+++++&+++++++++++++++++&+%+$  ",
"                         # =+'+%+@++&&&++++++++++++++++++++++, $",
"                            #+++@++{++&++++++++++++++++++!+!+@+ ",
"                        # $ .  +++~++!+@+++++++++++++++++&++~,+,",
"                         ##  ;  +%+&&++,++++++++++++++++&++%@+++",
"                        $  ;$ # # +++,+,+++++++++++++++++,&++]+&",
"                          = $    - @+%+++++++++++++++++++,+&++&+",
"                                .  $ +,++@+@,,++++++++++++++++++",
"                                 $-   +&~+%+++@+++++++++++++++++",
"                                .. .#  +++,%,,,@++++++++++++++++",
"                                $ >   ; @@++@+++++++++++++++++++",
"                                . $ -    +%++'%@++++++++++++++++",
"                                 # $# =   -%,+@+++++++++++++++++",
"                                $ .#  ..; .$#!+@++++++++++++++++",
"                                  $ #     #  - +++++++++++++++++"};
